<svg xmlns="http://www.w3.org/2000/svg" viewBox="0 0 78.93 78.93"><defs><style>.cls-1{fill:#ad1211;}</style></defs><title>Asset 2</title><g id="Layer_2" data-name="Layer 2"><g id="_02-CIRCLE-COLOR" data-name="02-CIRCLE-COLOR"><g id="Instagram"><path id="Instagram-2" data-name="Instagram" class="cls-1" d="M54.4,21H26.45a4.35,4.35,0,0,0-4.36,4.35v28a4.35,4.35,0,0,0,4.36,4.35H54.4a4.35,4.35,0,0,0,4.36-4.35v-28A4.35,4.35,0,0,0,54.4,21Zm-6,5.73a1.15,1.15,0,0,1,1.15-1.15H53a1.15,1.15,0,0,1,1.15,1.15V30.2A1.15,1.15,0,0,1,53,31.35H49.59a1.15,1.15,0,0,1-1.15-1.15Zm-8,5.61a7,7,0,1,1-7,7A7,7,0,0,1,40.46,32.38ZM55.32,53.12a1.15,1.15,0,0,1-1.15,1.15H26.67a1.15,1.15,0,0,1-1.15-1.15V35.93h4.58a7,7,0,0,0-.8,3.48,11.15,11.15,0,0,0,22.31,0,5.87,5.87,0,0,0-.88-3.48h4.58Z"/><path class="cls-1" d="M39.47,78.93A39.47,39.47,0,1,1,78.93,39.47,39.51,39.51,0,0,1,39.47,78.93ZM39.47,3A36.47,36.47,0,1,0,75.93,39.47,36.51,36.51,0,0,0,39.47,3Z"/></g></g></g></svg>