<svg xmlns="http://www.w3.org/2000/svg" viewBox="0 0 78.93 78.93"><defs><style>.cls-1{fill:#1b326e;}</style></defs><title>Asset 1</title><g id="Layer_2" data-name="Layer 2"><g id="_02-CIRCLE-COLOR" data-name="02-CIRCLE-COLOR"><g id="Twitter"><path id="Twitter-2" data-name="Twitter" class="cls-1" d="M56.7,24.23a15.13,15.13,0,0,1-4.88,1.91,7.58,7.58,0,0,0-5.61-2.49,7.78,7.78,0,0,0-7.68,7.88,8,8,0,0,0,.2,1.79,21.63,21.63,0,0,1-15.84-8.24,8,8,0,0,0-1,4,7.93,7.93,0,0,0,3.42,6.56,7.54,7.54,0,0,1-3.48-1v.1a7.83,7.83,0,0,0,6.17,7.73,7.33,7.33,0,0,1-2,.28,7.47,7.47,0,0,1-1.45-.14,7.71,7.71,0,0,0,7.18,5.47,15.17,15.17,0,0,1-9.54,3.37,15.38,15.38,0,0,1-1.83-.11,21.39,21.39,0,0,0,11.78,3.54c14.14,0,21.86-12,21.86-22.42,0-.34,0-.69,0-1a15.77,15.77,0,0,0,3.83-4.08,15,15,0,0,1-4.41,1.24A7.86,7.86,0,0,0,56.7,24.23Z"/><path class="cls-1" d="M39.47,78.93A39.47,39.47,0,1,1,78.93,39.47,39.51,39.51,0,0,1,39.47,78.93ZM39.47,3A36.47,36.47,0,1,0,75.93,39.47,36.51,36.51,0,0,0,39.47,3Z"/></g></g></g></svg>
